<?xml version="1.0" encoding="utf-8"?>
<svg viewBox="0 0 198.14 63.846" xmlns="http://www.w3.org/2000/svg">
  <defs>
    <style>.a{fill:#fff}.c{fill:#d91a32}</style>
  </defs>
  <path class="a" d="M471,139.88H456.18a6.57,6.57,0,0,0-6.57,6.57v50.3a6.58,6.58,0,0,0,6.57,6.58H471a6.59,6.59,0,0,0,6.58-6.58v-50.3a6.58,6.58,0,0,0-6.57-6.57" transform="matrix(1, 0, 0, 1, -449.6199951171875, -139.8800048828125)"/>
  <path d="M470.4,195.78a1,1,0,0,1-.3-1.31c-0.53-2.2-2.28-3.53-1.37-4.25-0.22-.73-0.68-1.64-0.66-1.64a27.28,27.28,0,0,1-5.43-4.47,8.59,8.59,0,0,1-1.44-1.46,42.9,42.9,0,0,1-4.61-6.82l-1.3-.18c-0.59-2.42-2.57-4.44-2.62-6.87a13.68,13.68,0,0,1,.58-3.27,4.39,4.39,0,0,1,.92-1v-0.65c-2.84.08-2-.21-2.51-1.31a1.58,1.58,0,0,1,0-1.46,32.35,32.35,0,0,1,2.17-5.07c0.16-.55.71-1.89,0.71-1.89,2.11-4.31,2.9-4,5.42-4.23l0.12-.18c2.52-.11,2.1-0.3,2.46-2.73-0.37.16-.48-0.76-0.48-0.76-0.2-1.38.38-1.12,0.66-1.14,0.06-2.27.29-3,1.93-3.61h-8.48a5,5,0,0,0-5,5v50.3a5,5,0,0,0,5,5H471c-1.7-.92-0.7-2.67-0.64-6" transform="matrix(1, 0, 0, 1, -449.6199951171875, -139.8800048828125)" fill="#00428b"/>
  <path class="c" d="M467.35 151.51l0 .22c.45.26.68.48 1.14.77 1.21.76 2.7 2.12 2.52 6.79.34 1 .49 3 .8 3.66a10.32 10.32 0 0 1 1.24 3.25 6.7 6.7 0 0 0 .42 2c1.25.28.89.41 1.08.62s.92.24.92.91a4.42 4.42 0 0 1 .58 1v-24.3a5 5 0 0 0-5-5h-4.8a2.29 2.29 0 0 1 1.46 1.11c.62.05 1.36 1.44.21 3.49.51.34.11.85-.25 1.43a.67.67 0 0 1-.57.5c-.44.92-1 1.81-1.36 1.86a.64.64 0 0 0 0 .73 6.81 6.81 0 0 1 1.65 1M476.05 174a4.48 4.48 0 1 1-5.22-6c-.52-1.29-1.6-3.38-1.93-4.07s-1-4.94-1.2-5.78a7.12 7.12 0 0 0-1.93 1.18c-.11.11-1.42 3.53-1.48 3.71s0 .57 0 .57a1.5 1.5 0 0 1 1 1.2c.37 1.12 1.49 5.22 1.49 5.22a2.72 2.72 0 0 1-.32.29c1.41 4.73.92 6.77 1.55 8.16.8 2 1 1.7 1.7 3.34.49 1.2 1 5.91 1.22 6.12a4.39 4.39 0 0 1 1.18 2.27c0 .55-.65 2.17-.41 3.12a7.86 7.86 0 0 0 .48 2 1 1 0 0 1 .12.68.39.39 0 0 0-.07.27c.42 1.49 1.78 4-.42 5.35h0a5 5 0 0 0 4.22-5V174z" transform="matrix(1, 0, 0, 1, -449.6199951171875, -139.8800048828125)"/>
  <path class="a" d="M 42.71 61.97 L 35.61 61.97 L 35.61 1.67 L 46.61 1.67 L 53.96 51.42 C 52.86 39.6 51.43 20.51 51.43 10.42 L 51.43 1.64 L 58.53 1.64 L 58.53 61.94 L 48.45 61.94 L 41.69 13.63 C 42.28 24.44 42.69 37.36 42.69 44.63 L 42.69 61.94 L 42.71 61.97 Z M 70.66 35.79 L 70.66 54.37 L 72.01 54.37 C 74.54 54.37 75.3 52.93 75.3 50.06 L 75.3 39.84 C 75.3 36.84 74.37 35.79 71.67 35.79 L 70.67 35.79 L 70.66 35.79 Z M 70.66 9.27 L 70.66 29.2 L 71.66 29.2 C 74.53 29.2 75.29 28.1 75.29 24.81 L 75.29 13.32 C 75.29 10.53 74.44 9.27 72 9.27 L 70.65 9.27 L 70.66 9.27 Z M 62.55 61.97 L 62.55 1.67 L 72.6 1.67 C 79.27 1.67 83.41 5.3 83.41 13.75 L 83.41 22.62 C 83.41 28.11 81.72 30.9 79.36 32.33 C 81.72 33.85 83.41 36.55 83.41 41.2 L 83.41 49.98 C 83.41 58.26 79.02 61.98 72.6 61.98 L 62.55 61.98 L 62.55 61.97 Z M 93.88 43.81 L 98.19 43.81 L 97.51 32.75 C 97.26 28.36 96.58 14.42 96.08 6.91 L 95.74 6.91 L 94.56 32.75 L 93.88 43.81 Z M 98.61 50.65 L 93.54 50.65 L 92.86 61.97 L 84.67 61.97 L 90.58 1.67 L 102.06 1.67 L 107.8 61.97 L 99.28 61.97 L 98.61 50.65 Z M 133.53 51.33 C 133.53 59.53 130.66 62.49 125.67 62.49 C 120.26 62.49 117.67 59.49 117.67 51.33 L 117.67 42.2 L 121.98 42.2 L 121.98 52.26 C 121.98 56.57 122.74 58.34 125.7 58.34 C 128.24 58.34 129.25 56.57 129.25 52.26 L 129.25 48.79 C 129.25 44.14 128.83 41.35 123.84 34.42 C 119.84 28.84 117.67 25.42 117.67 17.69 L 117.67 12.28 C 117.67 4.08 120.67 1.13 125.67 1.13 C 130.99 1.13 133.53 4.13 133.53 12.28 L 133.53 21.28 L 129.22 21.28 L 129.22 11.28 C 129.22 6.97 128.63 5.2 125.67 5.2 C 123.13 5.2 121.95 6.97 121.95 11.28 L 121.95 16.77 C 121.95 23.02 123.05 25.22 126.85 30.63 C 132.26 38.24 133.53 40.63 133.53 47.63 L 133.53 51.26 L 133.53 51.33 Z M 145.85 62.12 C 141.63 62.12 139.43 60.6 139.43 55.36 L 139.43 18.36 L 136.81 18.36 L 136.81 14.64 L 139.38 14.64 L 139.38 5.94 L 143.44 4.94 L 143.44 14.66 L 147.38 14.66 L 147.38 18.38 L 143.48 18.38 L 143.48 55.23 C 143.48 57.51 144.41 58.36 146.48 58.36 L 147.66 58.36 L 147.66 62 C 147.045 62.102 146.423 62.159 145.8 62.17 M 165.97 52.51 C 165.97 60.37 162.97 62.51 158.36 62.51 C 153.75 62.51 150.75 60.4 150.75 52.51 L 150.75 24.28 C 150.75 16.5 153.75 14.14 158.36 14.14 C 162.97 14.14 165.97 16.25 165.97 24.14 L 165.97 52.54 L 165.97 52.51 Z M 154.81 23.12 L 154.81 53.52 C 154.81 56.9 155.49 58.84 158.36 58.84 C 161.23 58.84 161.91 56.9 161.91 53.52 L 161.91 23.12 C 161.91 19.74 161.23 17.8 158.36 17.8 C 155.49 17.8 154.81 19.74 154.81 23.12 M 174.74 61.97 L 170.68 61.97 L 170.68 14.65 L 173.38 14.65 C 173.921 15.652 174.292 16.737 174.48 17.86 C 175.41 15.32 178.2 14.14 181.24 14.14 L 181.32 14.14 L 181.32 18.28 L 180.98 18.28 C 177.68 18.28 174.73 19.55 174.73 22.08 L 174.73 61.97 L 174.74 61.97 Z M 190.52 62.48 C 185.87 62.48 182.91 60.37 182.91 52.48 L 182.91 24.28 C 182.91 16.5 185.91 14.14 190.52 14.14 C 195.13 14.14 198.13 16.25 198.13 24.14 L 198.13 41.04 L 186.98 41.04 L 186.98 53.52 C 186.98 56.9 187.66 58.85 190.53 58.85 C 193.4 58.85 194.08 56.91 194.08 53.52 L 194.08 47.27 L 198.14 47.27 L 198.14 52.51 C 198.14 60.37 195.14 62.51 190.53 62.51 M 186.98 37.51 L 194.08 37.51 L 194.08 23.12 C 194.08 19.74 193.4 17.79 190.53 17.79 C 187.66 17.79 186.98 19.73 186.98 23.12 L 186.98 37.49 L 186.98 37.51 Z" transform="matrix(1, 0, 0, 1, 1.7763568394002505e-15, 1.7763568394002505e-15)"/>
</svg>